<?xml version="1.0" standalone="no"?>
<!DOCTYPE svg PUBLIC "-//W3C//DTD SVG 20010904//EN"
 "http://www.w3.org/TR/2001/REC-SVG-20010904/DTD/svg10.dtd">
<svg version="1.0" xmlns="http://www.w3.org/2000/svg"
 width="626.000000pt" height="501.000000pt" viewBox="0 0 626.000000 501.000000"
 preserveAspectRatio="xMidYMid meet">

<g transform="translate(0.000000,501.000000) scale(0.100000,-0.100000)"
fill="#000000" stroke="none">
<path d="M2497 4524 c-33 -8 -96 -33 -140 -56 -67 -34 -103 -63 -196 -156
-123 -124 -146 -138 -281 -172 -108 -27 -171 -61 -235 -127 -166 -168 -198
-447 -81 -715 l16 -37 -50 -57 c-87 -99 -116 -221 -86 -356 29 -132 107 -236
244 -330 40 -27 75 -55 76 -61 2 -7 8 -42 14 -79 21 -139 101 -252 221 -311
61 -30 73 -32 169 -32 102 0 103 0 108 -25 11 -48 27 -81 48 -95 24 -17 93
-20 131 -5 21 8 13 -3 -32 -48 -71 -70 -103 -131 -103 -196 0 -88 71 -177 155
-194 25 -5 40 -13 40 -22 0 -11 11 -14 46 -12 57 3 67 -14 39 -61 -11 -17 -20
-42 -20 -55 0 -34 53 -62 118 -62 l52 0 -19 -38 c-47 -93 -101 -311 -101 -409
0 -55 2 -59 28 -69 l28 -11 -3 -174 c-2 -150 -6 -181 -24 -222 -19 -45 -19
-51 -5 -72 27 -41 163 -63 280 -46 96 14 110 29 102 109 -6 58 -3 72 40 187
l47 125 103 0 104 0 2 -72 c2 -85 2 -91 -8 -180 l-7 -68 35 -14 c75 -32 358
-35 394 -6 7 7 14 26 14 42 0 32 -25 88 -40 88 -26 0 -27 38 -4 130 13 52 24
105 24 117 0 28 7 32 93 52 l72 16 8 45 c4 25 9 117 9 205 2 214 -26 334 -107
469 -27 45 -35 69 -35 106 0 44 -3 50 -30 62 -22 9 -34 25 -45 57 -8 25 -15
45 -15 46 0 1 24 0 53 -3 35 -3 60 -12 77 -27 37 -33 66 -46 108 -48 41 -1
102 19 102 35 0 5 -9 4 -19 -2 -28 -14 -97 -12 -129 4 -43 23 -83 71 -93 112
-20 89 -5 185 38 242 24 33 107 81 118 70 3 -3 -6 -23 -20 -43 -14 -21 -23
-41 -19 -44 3 -3 10 3 16 14 19 34 78 85 99 85 25 0 25 -17 -1 -25 -12 -4 -35
-37 -57 -83 -33 -65 -38 -85 -38 -145 0 -65 2 -70 33 -98 30 -27 70 -41 57
-19 -4 6 5 10 20 10 22 0 26 -3 20 -18 -4 -9 -10 -26 -13 -37 -5 -17 -3 -18
11 -7 9 8 17 23 19 34 2 12 9 23 16 26 8 3 12 -12 12 -51 0 -65 15 -114 46
-147 22 -24 22 -30 17 -143 -7 -131 1 -158 49 -183 47 -24 86 -18 125 21 l36
36 -6 123 -6 123 25 12 c32 14 53 65 58 137 3 45 10 62 32 86 27 28 29 34 32
136 3 97 2 109 -17 129 -20 21 -20 24 -6 165 27 264 15 385 -41 416 -17 9 -16
15 9 98 14 49 29 105 32 125 10 53 -10 113 -47 144 -68 57 -170 7 -199 -97 -7
-26 -9 -80 -6 -140 l5 -97 -35 -27 c-19 -14 -39 -38 -45 -52 -13 -32 -37 -270
-38 -364 0 -57 -3 -69 -20 -78 -14 -8 -26 -8 -40 0 -11 6 -51 10 -90 9 -76 -2
-97 6 -65 23 10 6 32 25 47 42 24 27 41 27 21 0 -5 -5 2 0 13 13 19 18 23 39
29 127 5 78 4 115 -6 139 -21 54 -98 168 -161 239 -41 46 -58 73 -54 85 3 10
2 56 -3 102 -8 75 -7 86 10 104 10 11 21 40 25 64 3 24 10 45 14 48 13 8 40
-71 52 -153 6 -42 13 -71 15 -65 8 23 -18 156 -39 202 -17 38 -20 63 -19 142
2 101 -14 191 -48 271 l-20 46 33 23 c71 48 104 139 87 235 -24 126 -110 215
-226 231 -32 4 -45 10 -45 22 0 36 -62 144 -110 192 -107 107 -261 144 -413
99 l-77 -23 -53 51 c-123 115 -303 159 -480 116z m274 -30 c81 -24 127 -51
189 -110 31 -30 64 -54 74 -54 9 0 45 9 79 21 131 45 288 6 388 -95 52 -53 95
-133 105 -195 6 -39 27 -56 37 -28 6 18 92 -7 134 -39 71 -54 113 -169 93
-253 -12 -52 -71 -141 -93 -141 -7 0 -20 12 -29 28 -23 38 -96 120 -119 133
-34 18 -21 -7 36 -73 65 -73 128 -193 145 -271 6 -30 10 -85 8 -123 l-3 -67
-88 105 c-159 193 -261 267 -423 308 -87 23 -214 26 -296 9 -333 -72 -648
-448 -664 -794 -4 -73 -2 -85 7 -65 7 15 13 20 16 13 3 -7 12 -13 20 -13 14 0
15 -11 9 -77 -3 -43 -12 -100 -20 -128 -10 -40 -16 -49 -32 -47 -65 12 -94 13
-111 3 -15 -9 -12 -10 19 -11 36 0 37 -1 26 -24 -6 -14 -7 -33 -3 -43 7 -15 9
-14 14 11 7 34 35 56 51 40 7 -7 4 -39 -11 -105 -12 -52 -23 -95 -24 -97 -7
-9 -101 57 -133 93 -88 101 -80 247 19 312 39 26 106 34 160 19 23 -7 23 -6 5
8 -26 21 -78 30 -123 21 -37 -7 -103 -64 -129 -109 -9 -17 -13 -6 -27 65 -22
107 -22 280 -1 395 28 148 32 139 -56 140 -41 0 -93 6 -114 12 -22 6 -42 9
-44 7 -12 -12 79 -39 138 -41 37 -2 64 -8 63 -13 -46 -191 -43 -470 6 -576 11
-22 21 -70 24 -107 8 -108 79 -204 170 -229 37 -10 39 -12 33 -42 -3 -18 -7
-53 -10 -79 -4 -27 -9 -69 -12 -94 l-6 -46 -86 4 c-139 6 -252 69 -320 176
-34 53 -62 139 -62 188 0 52 -18 78 -78 114 -87 51 -174 145 -218 236 -37 74
-39 83 -39 173 0 83 4 104 27 153 14 31 45 77 68 102 48 52 49 67 10 171 -87
234 -54 462 88 616 70 77 118 103 253 139 63 17 125 38 139 47 14 9 75 66 135
128 118 119 186 163 300 196 78 23 215 24 286 3z m479 -870 c95 -13 147 -41
209 -114 157 -182 220 -321 222 -489 1 -81 2 -83 10 -36 21 129 -43 316 -158
459 -81 100 -83 104 -32 68 77 -52 152 -127 186 -183 37 -64 56 -163 78 -410
8 -92 22 -186 30 -209 34 -97 8 -208 -70 -297 -52 -59 -174 -144 -280 -195
-38 -19 -81 -41 -95 -50 -14 -9 -38 -20 -55 -24 -16 -4 -32 -11 -35 -15 -3 -5
-21 -5 -40 0 -19 5 -80 12 -135 16 -297 20 -550 105 -590 198 -14 31 -14 32
-15 6 0 -22 -6 -28 -31 -33 -17 -3 -45 -6 -61 -6 -26 0 -29 3 -25 23 27 106
60 309 62 385 3 85 6 95 28 112 14 11 40 43 58 72 l34 53 7 -75 c9 -93 33
-190 59 -241 11 -22 21 -39 23 -39 2 0 -6 30 -17 68 -29 98 -29 306 1 419 36
138 124 334 195 437 32 45 159 95 277 109 30 3 99 0 160 -9z m538 -385 c17
-23 29 -46 27 -53 -2 -6 -9 -39 -15 -73 -7 -35 -16 -63 -20 -63 -4 0 -10 21
-13 48 -3 26 -9 62 -13 81 -5 25 -4 32 4 27 15 -9 16 13 2 48 -13 36 -6 32 28
-15z m-1206 -34 c-5 -63 -10 -73 -36 -68 -32 7 -38 34 -15 73 25 41 55 37 51
-5z m1791 -230 c25 -25 30 -72 16 -176 -9 -76 -10 -102 -1 -111 21 -21 13 -27
-19 -16 -17 6 -48 8 -70 5 l-39 -5 0 104 c0 117 12 158 55 192 33 26 39 27 58
7z m-478 -393 c49 -74 95 -188 95 -237 0 -46 -32 -106 -80 -148 -34 -32 -47
-38 -69 -33 -14 4 -104 9 -198 13 -190 6 -206 13 -125 52 193 93 312 231 315
366 1 30 5 55 9 55 5 0 28 -31 53 -68z m468 49 c11 0 26 -19 39 -48 20 -45 21
-59 14 -228 -3 -99 -9 -203 -13 -231 -5 -49 -8 -53 -43 -67 -51 -20 -77 -59
-62 -92 9 -19 9 -31 0 -50 -9 -19 -8 -31 2 -52 7 -16 12 -38 11 -51 -3 -30 13
-49 50 -57 25 -6 29 -10 23 -28 -19 -66 -82 -127 -130 -127 -15 0 -24 -6 -24
-15 0 -19 -29 -19 -57 0 -38 27 -47 76 -39 238 3 82 9 153 12 158 4 6 11 6 19
-1 17 -14 47 -6 70 20 36 39 -17 150 -71 150 -29 0 -29 -10 -9 200 19 197 32
238 81 267 32 18 51 20 127 14z m-1835 -361 c20 -16 64 -41 97 -56 71 -31 233
-74 281 -74 22 0 37 -6 43 -18 9 -17 4 -20 -57 -31 -63 -11 -107 -27 -303
-111 -95 -41 -135 -37 -191 20 -21 21 -38 44 -38 51 0 8 19 25 41 39 75 46
168 160 131 160 -4 0 -25 -20 -45 -45 -37 -44 -116 -105 -136 -105 -12 0 -13
104 -2 154 5 27 10 30 56 34 28 2 52 6 54 8 11 11 35 2 69 -26z m-211 -87 c-3
-10 -5 -4 -5 12 0 17 2 24 5 18 2 -7 2 -21 0 -30z m1133 -24 c-21 -73 -69
-110 -168 -130 -70 -13 -187 -7 -224 12 -33 17 -78 61 -78 76 0 9 18 13 63 13
96 0 178 -19 210 -48 l27 -26 0 31 c0 28 4 32 45 43 25 7 48 17 51 22 10 15
67 47 75 42 4 -2 4 -18 -1 -35z m277 -9 c151 -14 153 -15 104 -56 -55 -47 -76
-108 -75 -209 1 -44 7 -92 13 -107 12 -31 4 -34 -59 -22 -29 6 -36 16 -83 116
-27 59 -52 106 -55 104 -2 -3 21 -69 52 -148 31 -79 63 -167 72 -197 15 -52
15 -54 -6 -76 -31 -33 -169 -101 -232 -114 -30 -7 -103 -10 -163 -9 l-109 3
-8 35 c-18 74 -82 259 -119 343 -22 48 -39 92 -39 96 0 5 28 27 63 49 56 37
68 41 129 41 74 0 109 7 153 29 32 15 95 71 95 83 0 4 4 18 9 31 8 21 13 23
77 20 38 -1 119 -7 181 -12z m463 -57 c12 -15 20 -38 18 -52 -3 -24 -6 -26
-46 -23 -28 2 -41 -1 -37 -8 3 -5 -5 -15 -19 -22 -31 -14 -35 -33 -5 -25 22 6
22 -2 3 -137 l-6 -38 -58 4 c-84 6 -93 17 -87 103 3 39 14 92 27 121 19 46 28
54 78 77 76 34 105 34 132 0z m-1173 -53 c26 -16 55 -30 65 -30 28 0 21 -18
-14 -36 -45 -22 -68 -44 -68 -63 0 -9 22 -68 49 -131 49 -115 111 -297 111
-325 0 -19 -34 -13 -171 32 l-107 35 -7 56 c-6 50 -28 160 -41 201 -4 11 -7
11 -22 -2 -15 -14 -20 -13 -47 9 -16 13 -34 24 -40 24 -5 0 4 -11 20 -25 36
-29 34 -29 -29 -10 -27 8 -63 15 -80 14 -25 -1 -21 -3 20 -13 62 -15 118 -46
122 -68 3 -14 -6 -17 -45 -17 -59 1 -99 -14 -136 -49 -35 -33 -67 -93 -67
-126 0 -37 -14 -39 -67 -12 -58 29 -87 58 -108 110 -50 118 95 275 358 388
177 76 232 83 304 38z m1464 -21 c12 -23 4 -154 -12 -196 -12 -31 -45 -46 -86
-38 -33 6 -35 8 -29 39 5 25 3 35 -9 40 -22 8 -18 39 6 54 l21 14 -21 19 c-29
28 -26 46 12 69 44 27 103 27 118 -1z m-1649 -319 c5 -34 4 -34 -22 -20 -16 9
-18 14 -8 35 14 30 24 25 30 -15z m-38 -40 c37 -14 62 -56 46 -75 -12 -14 -16
-13 -40 10 -33 32 -42 32 -104 -6 -71 -43 -117 -89 -111 -110 4 -11 -1 -18
-15 -22 -11 -3 -22 -2 -25 2 -8 14 22 109 45 141 42 58 136 86 204 60z m971
-109 c-13 -97 -45 -165 -123 -260 -46 -56 -26 -52 33 7 47 46 95 129 95 165 0
34 18 16 48 -51 64 -137 76 -205 76 -430 1 -161 -2 -204 -13 -211 -22 -14
-285 -68 -416 -87 -148 -20 -438 -15 -555 11 -81 18 -251 72 -261 83 -17 18
70 361 113 447 19 36 103 123 120 125 4 0 29 -16 54 -36 71 -53 157 -94 139
-64 -3 5 -44 34 -90 64 -47 31 -85 62 -85 71 0 20 15 19 92 -5 70 -22 97 -25
82 -11 -5 6 -43 18 -84 28 -62 15 -74 21 -72 36 2 10 -2 25 -9 33 -6 8 -10 16
-8 19 3 2 45 -11 94 -30 167 -62 391 -72 527 -22 120 43 228 121 228 163 0 9
5 12 11 8 7 -4 9 -23 4 -53z m-938 -18 c64 -70 72 -94 47 -141 -40 -74 -144
-123 -212 -101 -52 16 -57 23 -42 58 13 33 20 37 37 20 23 -23 22 10 0 38 -34
40 -49 72 -43 89 7 18 124 94 144 94 9 0 39 -26 69 -57z m33 21 c0 -8 -4 -12
-10 -9 -5 3 -10 10 -10 16 0 5 5 9 10 9 6 0 10 -7 10 -16z m1425 -89 c4 -36 4
-94 0 -130 -6 -60 -8 -65 -31 -65 -13 0 -33 9 -44 20 -22 22 -26 83 -14 188
l7 52 38 0 37 0 7 -65z m-1437 -780 c51 -14 129 -28 173 -31 52 -5 79 -11 76
-18 -2 -6 -21 -56 -42 -111 l-38 -100 -146 3 c-80 2 -152 5 -158 7 -14 5 -18
177 -6 248 5 33 9 38 27 32 12 -3 63 -17 114 -30z m882 13 c0 -2 -13 -46 -28
-98 -27 -94 -27 -94 -67 -106 -50 -16 -198 -17 -248 -3 l-38 10 3 72 3 71 125
17 c69 10 143 22 165 27 39 10 85 15 85 10z m-30 -293 c0 -8 -4 -16 -9 -19
-12 -8 -34 21 -27 33 9 14 36 2 36 -14z m-945 -34 c-7 -22 -29 -28 -40 -10 -9
14 26 52 38 40 5 -5 6 -18 2 -30z m885 25 c0 -11 -19 -15 -25 -6 -3 5 1 10 9
10 9 0 16 -2 16 -4z m-919 -79 c-1 -12 -15 -9 -19 4 -3 6 1 10 8 8 6 -3 11 -8
11 -12z"/>
<path d="M2880 4256 c0 -4 11 -22 24 -39 34 -44 49 -115 36 -170 -15 -64 -13
-75 7 -55 27 28 29 115 3 175 -19 45 -70 109 -70 89z"/>
<path d="M2462 4084 c49 -51 82 -112 93 -176 l7 -37 37 15 c77 33 149 56 230
73 47 10 87 24 89 31 7 21 -101 3 -226 -39 l-112 -38 -11 40 c-18 68 -70 137
-124 164 -26 13 -24 9 17 -33z"/>
<path d="M2993 4056 c-7 -22 -11 -42 -8 -44 8 -8 26 40 23 61 -2 17 -6 13 -15
-17z"/>
<path d="M3510 4008 c-7 -24 -23 -62 -36 -85 -28 -49 -32 -72 -8 -52 25 20 54
85 61 134 7 57 -3 58 -17 3z"/>
<path d="M2600 4009 c5 -19 11 -43 14 -54 3 -11 4 0 1 24 -2 24 -8 48 -14 54
-7 7 -8 0 -1 -24z"/>
<path d="M3060 3992 c0 -5 44 -16 97 -26 54 -9 138 -33 186 -52 88 -35 111
-38 88 -10 -37 45 -371 124 -371 88z"/>
<path d="M3536 3902 l-19 -27 26 24 c28 26 32 31 20 31 -5 0 -17 -13 -27 -28z"/>
<path d="M2321 3718 c-28 -29 -68 -77 -89 -106 -34 -51 -38 -53 -70 -47 -50 9
-132 48 -169 79 -46 39 -41 16 4 -24 43 -38 122 -75 175 -83 36 -5 39 -3 74
46 21 29 62 78 93 109 38 40 52 61 45 68 -7 7 -27 -6 -63 -42z"/>
<path d="M2077 3530 c6 -7 33 -14 60 -16 48 -3 48 -3 8 5 -22 4 -49 12 -60 16
-16 6 -18 5 -8 -5z"/>
<path d="M3404 3141 c-38 -23 -74 -68 -74 -92 0 -29 16 -23 39 15 44 70 133
84 212 32 26 -18 39 -22 39 -13 0 15 -34 49 -67 66 -34 17 -114 13 -149 -8z"/>
<path d="M3460 3013 c-49 -26 -75 -75 -74 -144 1 -67 24 -113 74 -146 81 -55
165 2 176 120 12 117 -89 214 -176 170z m135 -58 c28 -27 35 -85 11 -85 -27 0
-66 41 -66 69 0 48 19 53 55 16z m-47 -65 c10 -17 10 -21 -4 -27 -18 -7 -48
23 -38 38 9 15 29 10 42 -11z"/>
<path d="M2758 2970 c-52 -28 -81 -73 -86 -137 -5 -62 13 -74 21 -13 7 53 41
98 91 121 56 25 90 24 147 -8 54 -29 73 -25 43 8 -47 52 -146 65 -216 29z"/>
<path d="M2818 2834 c-63 -33 -79 -151 -33 -231 76 -128 225 -80 225 73 0 123
-102 207 -192 158z m40 -75 c2 -17 -6 -37 -21 -55 -21 -24 -27 -26 -41 -15
-22 19 -20 57 5 82 27 27 53 21 57 -12z m32 -53 c0 -7 -6 -21 -14 -32 -11 -15
-17 -16 -27 -7 -9 9 -8 18 5 38 17 25 36 26 36 1z"/>
<path d="M3240 2676 c-52 -17 -101 -35 -107 -39 -19 -12 -15 -86 7 -134 24
-54 70 -83 130 -83 90 0 147 63 137 152 -6 49 -43 130 -62 134 -5 1 -53 -12
-105 -30z m120 -37 c42 -81 22 -157 -47 -186 -88 -36 -163 27 -163 136 l0 51
38 1 c20 0 60 9 87 19 28 9 53 18 57 19 4 0 17 -17 28 -40z"/>
<path d="M3707 2653 c-4 -3 -7 -16 -7 -27 1 -21 1 -21 15 -2 8 11 15 23 15 28
0 10 -14 11 -23 1z"/>
<path d="M3666 2631 c-4 -7 -5 -15 -2 -18 9 -9 19 4 14 18 -4 11 -6 11 -12 0z"/>
<path d="M2752 2458 c-13 -13 -16 -38 -6 -38 8 0 33 32 34 43 0 11 -15 8 -28
-5z"/>
<path d="M2690 2441 c-7 -15 -7 -21 0 -21 12 0 25 28 17 36 -3 3 -10 -4 -17
-15z"/>
<path d="M4271 2724 c0 -11 3 -14 6 -6 3 7 2 16 -1 19 -3 4 -6 -2 -5 -13z"/>
<path d="M4254 2598 l-19 -23 23 19 c21 18 27 26 19 26 -2 0 -12 -10 -23 -22z"/>
<path d="M4370 2195 c0 -30 5 -55 10 -55 6 0 10 25 10 55 0 30 -4 55 -10 55
-5 0 -10 -25 -10 -55z"/>
<path d="M4191 2224 c0 -11 3 -14 6 -6 3 7 2 16 -1 19 -3 4 -6 -2 -5 -13z"/>
<path d="M4173 1690 c0 -25 2 -35 4 -22 2 12 2 32 0 45 -2 12 -4 2 -4 -23z"/>
<path d="M4327 1703 c-7 -37 10 -54 21 -22 10 25 6 49 -8 49 -4 0 -10 -12 -13
-27z"/>
<path d="M4181 1624 c0 -11 3 -14 6 -6 3 7 2 16 -1 19 -3 4 -6 -2 -5 -13z"/>
<path d="M3430 1890 c-11 -11 -20 -29 -20 -40 0 -27 35 -60 63 -60 53 0 77 75
35 104 -30 21 -54 20 -78 -4z"/>
<path d="M3193 1850 c-53 -21 -31 -110 27 -110 15 0 36 7 44 16 24 23 20 70
-6 88 -25 18 -33 19 -65 6z"/>
<path d="M3487 1682 c-36 -39 -7 -102 45 -102 24 0 58 35 58 60 0 27 -35 60
-63 60 -13 0 -31 -8 -40 -18z"/>
<path d="M3255 1634 c-25 -25 -16 -75 17 -93 25 -14 29 -14 55 5 34 26 40 48
19 79 -19 29 -66 34 -91 9z"/>
<path d="M3892 2875 c0 -16 2 -22 5 -12 2 9 2 23 0 30 -3 6 -5 -1 -5 -18z"/>
</g>
</svg>
